# xmcd
#
# Track frame offsets:
#	150
#	18408
#	37438
#	51408
#	66874
#	83078
#	99404
#	118705
#	138959
#	158932
#	175754
#	194767
#	208920
#	226946
#
# Disc length: 3239 seconds
#
# Revision: 1
# Processed by: cddbd v1.5.2PL0 Copyright (c) Steve Scherf et al.
# Submitted via: EasyCDDAExtractor 15.3.0.1
#
DISCID=cb0ca50e
DTITLE=Yolandita Monge - Mis Favoritas
DYEAR=2011
DGENRE=Latin
TTITLE0=Borinqueña
TTITLE1=Quitame Ese Hombre Del Corazon
TTITLE2=Aceptame Como Soy
TTITLE3=Luz De Luna
TTITLE4=La Distancia
TTITLE5=Al Ritmo De La Fantasia
TTITLE6=El Amor
TTITLE7=La Sombra De Lo Que Fui
TTITLE8=Debil
TTITLE9=Una Historia De Amor
TTITLE10=Cambiando La Rutina De Vivir
TTITLE11=Seras Mio
TTITLE12=Tanto Amor
TTITLE13=Como Lo Hago Yo
EXTD=
EXTT0=
EXTT1=
EXTT2=
EXTT3=
EXTT4=
EXTT5=
EXTT6=
EXTT7=
EXTT8=
EXTT9=
EXTT10=
EXTT11=
EXTT12=
EXTT13=
PLAYORDER=
